<svg width="50" height="50" viewBox="0 0 50 50" fill="none" xmlns="http://www.w3.org/2000/svg">
<rect width="50" height="50" rx="25" fill="white"/>
<g clip-path="url(#clip0_24_765)">
<path d="M10.4167 14.3076C10.4167 13.3691 10.7451 12.5949 11.402 11.985C12.0589 11.375 12.9129 11.07 13.964 11.07C14.9963 11.07 15.8314 11.3703 16.4696 11.9709C17.1265 12.5902 17.455 13.3973 17.455 14.392C17.455 15.2929 17.1359 16.0437 16.4977 16.6443C15.8409 17.2637 14.9775 17.5734 13.9077 17.5734H13.8795C12.8472 17.5734 12.012 17.2637 11.3739 16.6443C10.7357 16.0249 10.4167 15.246 10.4167 14.3076ZM10.7827 38.9416V20.1353H17.0327V38.9416H10.7827ZM20.4955 38.9416H26.7455V28.4405C26.7455 27.7835 26.8206 27.2768 26.9707 26.9202C27.2335 26.2821 27.6323 25.7424 28.1672 25.3014C28.7021 24.8603 29.3731 24.6398 30.1802 24.6398C32.2823 24.6398 33.3333 26.0568 33.3333 28.8909V38.9416H39.5833V28.1589C39.5833 25.3812 38.9264 23.2744 37.6126 21.8386C36.2988 20.4027 34.5627 19.6848 32.4043 19.6848C29.9831 19.6848 28.0968 20.7265 26.7455 22.8098V22.8661H26.7173L26.7455 22.8098V20.1353H20.4955C20.533 20.7359 20.5518 22.6034 20.5518 25.7378C20.5518 28.8721 20.533 33.2734 20.4955 38.9416Z" fill="#030000"/>
</g>
<defs>
<clipPath id="clip0_24_765">
<rect x="10.4167" y="10.4167" width="29.1667" height="29.1667" fill="white"/>
</clipPath>
</defs>
</svg>
